<?xml version="1.0" encoding="UTF-8"?><svg id="Layer_1" xmlns="http://www.w3.org/2000/svg" viewBox="0 0 396.85 99.21"><path d="M141.61,44.18c0,1.81-.28,3.55-.83,5.22-.56,1.67-1.37,3.14-2.43,4.41-1.06,1.27-2.36,2.29-3.89,3.05-1.53.77-3.27,1.15-5.22,1.15-1.6,0-3.11-.32-4.54-.97-1.43-.64-2.54-1.52-3.34-2.64h-.1v15.4h-8.56V31.28h8.14v3.18h.16c.8-1.04,1.91-1.96,3.32-2.74,1.41-.78,3.07-1.17,4.99-1.17s3.58.37,5.12,1.1c1.53.73,2.83,1.72,3.89,2.98s1.88,2.71,2.45,4.36c.57,1.65.86,3.38.86,5.19ZM133.31,44.18c0-.83-.13-1.65-.39-2.45-.26-.8-.64-1.51-1.15-2.12-.5-.61-1.14-1.1-1.91-1.49-.77-.38-1.65-.57-2.66-.57s-1.85.19-2.61.57c-.77.38-1.42.89-1.96,1.51-.54.63-.96,1.34-1.25,2.14-.3.8-.44,1.62-.44,2.45s.15,1.65.44,2.45c.29.8.71,1.51,1.25,2.14.54.63,1.19,1.13,1.96,1.51.76.38,1.63.57,2.61.57s1.9-.19,2.66-.57c.76-.38,1.4-.89,1.91-1.51.5-.63.89-1.35,1.15-2.17.26-.82.39-1.64.39-2.48Z" fill="#fff"/><path d="M145.58,34.83c1.53-1.46,3.32-2.56,5.35-3.29,2.04-.73,4.12-1.1,6.24-1.1s4.05.27,5.56.81c1.51.54,2.74,1.38,3.68,2.51.94,1.13,1.63,2.56,2.06,4.28s.65,3.77.65,6.13v13.1h-7.83v-2.77h-.16c-.66,1.08-1.66,1.91-3,2.51-1.34.59-2.79.89-4.36.89-1.04,0-2.12-.14-3.24-.42-1.11-.28-2.13-.73-3.05-1.36-.92-.63-1.68-1.46-2.27-2.51-.59-1.04-.89-2.33-.89-3.86,0-1.88.51-3.39,1.54-4.54s2.35-2.04,3.97-2.66c1.62-.63,3.42-1.04,5.4-1.25,1.98-.21,3.92-.31,5.79-.31v-.42c0-1.29-.45-2.24-1.36-2.84-.91-.61-2.02-.91-3.34-.91-1.22,0-2.39.26-3.52.78-1.13.52-2.1,1.15-2.9,1.88l-4.33-4.65ZM161.29,45.95h-1.1c-.94,0-1.89.04-2.84.13-.96.09-1.81.25-2.56.5-.75.24-1.37.6-1.85,1.07-.49.47-.73,1.09-.73,1.85,0,.49.11.91.34,1.25.23.35.51.63.86.83.35.21.75.36,1.2.44.45.09.89.13,1.31.13,1.74,0,3.07-.48,3.99-1.44.92-.96,1.38-2.25,1.38-3.89v-.89Z" fill="#fff"/><path d="M191.31,38.33c-.38-.1-.76-.17-1.12-.21-.37-.03-.72-.05-1.07-.05-1.15,0-2.11.21-2.9.62-.78.42-1.41.92-1.88,1.51-.47.59-.81,1.23-1.02,1.93s-.31,1.3-.31,1.82v13.33h-8.56v-25.97h8.25v3.76h.1c.66-1.33,1.6-2.42,2.82-3.26,1.22-.84,2.63-1.26,4.23-1.26.35,0,.69.02,1.02.05.33.04.6.09.81.16l-.37,7.57Z" fill="#fff"/><path d="M192.88,34.83c1.53-1.46,3.32-2.56,5.35-3.29,2.04-.73,4.12-1.1,6.24-1.1s4.05.27,5.56.81c1.51.54,2.74,1.38,3.68,2.51.94,1.13,1.63,2.56,2.06,4.28s.65,3.77.65,6.13v13.1h-7.83v-2.77h-.16c-.66,1.08-1.66,1.91-3,2.51-1.34.59-2.79.89-4.36.89-1.04,0-2.12-.14-3.24-.42-1.11-.28-2.13-.73-3.05-1.36-.92-.63-1.68-1.46-2.27-2.51-.59-1.04-.89-2.33-.89-3.86,0-1.88.51-3.39,1.54-4.54s2.35-2.04,3.97-2.66c1.62-.63,3.42-1.04,5.4-1.25,1.98-.21,3.92-.31,5.79-.31v-.42c0-1.29-.45-2.24-1.36-2.84-.91-.61-2.02-.91-3.34-.91-1.22,0-2.39.26-3.52.78-1.13.52-2.1,1.15-2.9,1.88l-4.33-4.65ZM208.59,45.95h-1.1c-.94,0-1.89.04-2.84.13-.96.09-1.81.25-2.56.5-.75.24-1.37.6-1.85,1.07-.49.47-.73,1.09-.73,1.85,0,.49.11.91.34,1.25.23.35.51.63.86.83.35.21.75.36,1.2.44.45.09.89.13,1.31.13,1.74,0,3.07-.48,3.99-1.44.92-.96,1.38-2.25,1.38-3.89v-.89Z" fill="#fff"/><path d="M237.04,38.96c-.7-.66-1.51-1.22-2.45-1.67s-1.93-.68-2.98-.68c-.8,0-1.54.16-2.22.47s-1.02.85-1.02,1.62.37,1.25,1.12,1.57c.75.31,1.96.66,3.63,1.04.97.21,1.96.5,2.95.89.99.38,1.89.89,2.69,1.51.8.63,1.44,1.39,1.93,2.3.49.91.73,1.98.73,3.24,0,1.64-.33,3.02-.99,4.15-.66,1.13-1.52,2.04-2.58,2.74s-2.25,1.2-3.58,1.51c-1.32.31-2.65.47-3.97.47-2.12,0-4.2-.34-6.24-1.02s-3.73-1.68-5.09-3l4.8-5.06c.77.83,1.71,1.53,2.82,2.09,1.11.56,2.3.83,3.55.83.7,0,1.38-.16,2.06-.5.68-.33,1.02-.91,1.02-1.75s-.42-1.39-1.25-1.78c-.83-.38-2.14-.78-3.92-1.2-.91-.21-1.81-.49-2.71-.83-.91-.35-1.71-.82-2.43-1.41-.71-.59-1.3-1.32-1.75-2.19s-.68-1.91-.68-3.13c0-1.57.33-2.9.99-3.99.66-1.1,1.51-1.99,2.56-2.69,1.04-.7,2.2-1.21,3.47-1.54,1.27-.33,2.53-.5,3.79-.5,1.95,0,3.85.3,5.72.91,1.86.61,3.44,1.52,4.72,2.74l-4.7,4.85Z" fill="#fff"/><path d="M271.13,44.6v1.04c0,.35-.02.68-.05.99h-18.85c.07.73.29,1.39.65,1.98s.83,1.11,1.41,1.54c.57.44,1.22.78,1.93,1.02.71.24,1.45.37,2.22.37,1.36,0,2.51-.25,3.45-.76.94-.5,1.71-1.16,2.3-1.96l5.95,3.76c-1.22,1.77-2.83,3.14-4.83,4.1-2,.96-4.33,1.44-6.97,1.44-1.95,0-3.79-.3-5.53-.91-1.74-.61-3.26-1.5-4.57-2.66-1.3-1.17-2.33-2.6-3.08-4.31-.75-1.71-1.12-3.65-1.12-5.85s.37-4.05,1.1-5.77c.73-1.72,1.72-3.18,2.98-4.39,1.25-1.2,2.73-2.13,4.44-2.79,1.7-.66,3.55-.99,5.53-.99s3.67.32,5.27.97,2.98,1.57,4.12,2.79c1.15,1.22,2.04,2.7,2.69,4.44.64,1.74.97,3.72.97,5.95ZM263.25,41.31c0-1.36-.43-2.52-1.28-3.5-.85-.97-2.13-1.46-3.84-1.46-.84,0-1.6.13-2.3.39-.7.26-1.3.62-1.83,1.07-.52.45-.94.98-1.25,1.59-.31.61-.49,1.24-.52,1.91h11.01Z" fill="#fff"/><path d="M302.98,54.83c0,2.54-.37,4.75-1.1,6.63-.73,1.88-1.76,3.44-3.08,4.67s-2.93,2.16-4.83,2.77c-1.9.61-3.99.91-6.29.91s-4.66-.35-7.07-1.04c-2.42-.7-4.52-1.71-6.29-3.03l4.28-6.11c1.25,1.11,2.64,1.94,4.15,2.48,1.51.54,3,.81,4.46.81,2.51,0,4.36-.66,5.56-1.98,1.2-1.32,1.8-3.08,1.8-5.27v-1.57h-.16c-.8,1.04-1.88,1.88-3.24,2.51-1.36.63-2.91.94-4.65.94-1.98,0-3.74-.36-5.27-1.07-1.53-.71-2.83-1.68-3.89-2.9-1.06-1.22-1.87-2.64-2.43-4.25-.56-1.62-.83-3.33-.83-5.14s.28-3.53.83-5.17,1.37-3.08,2.43-4.33c1.06-1.25,2.36-2.25,3.89-3,1.53-.75,3.27-1.12,5.22-1.12,1.64,0,3.2.33,4.7.99,1.5.66,2.7,1.69,3.6,3.08h.1v-3.34h8.09v23.54ZM294.84,44.13c0-.87-.15-1.71-.44-2.51s-.72-1.5-1.28-2.11c-.56-.61-1.22-1.09-1.98-1.44-.77-.35-1.64-.52-2.61-.52s-1.84.17-2.58.52c-.75.35-1.38.82-1.91,1.41-.52.59-.92,1.29-1.2,2.09-.28.8-.42,1.65-.42,2.56s.14,1.71.42,2.51.68,1.5,1.2,2.11c.52.61,1.16,1.1,1.91,1.46.75.37,1.61.55,2.58.55s1.85-.18,2.64-.55c.78-.37,1.44-.84,1.98-1.44.54-.59.96-1.29,1.25-2.09.3-.8.44-1.65.44-2.56Z" fill="#fff"/><path d="M325.85,57.28v-3.6h-.1c-.31.59-.72,1.15-1.23,1.67s-1.1.97-1.77,1.36c-.68.38-1.43.7-2.25.94-.82.24-1.68.37-2.58.37-1.74,0-3.21-.31-4.41-.94-1.2-.63-2.18-1.44-2.92-2.43-.75-.99-1.29-2.12-1.62-3.39-.33-1.27-.5-2.57-.5-3.89v-16.08h8.61v14.1c0,.73.05,1.43.16,2.09s.3,1.25.6,1.77c.29.52.69.93,1.17,1.23.49.3,1.13.44,1.93.44,1.5,0,2.64-.56,3.42-1.67.78-1.11,1.17-2.42,1.17-3.92v-14.04h8.56v26h-8.25Z" fill="#fff"/><path d="M356.59,38.33c-.38-.1-.76-.17-1.12-.21-.37-.03-.72-.05-1.07-.05-1.15,0-2.11.21-2.9.62-.78.42-1.41.92-1.88,1.51-.47.59-.81,1.23-1.02,1.93s-.31,1.3-.31,1.82v13.33h-8.56v-25.97h8.25v3.76h.1c.66-1.33,1.6-2.42,2.82-3.26,1.22-.84,2.63-1.26,4.23-1.26.35,0,.69.02,1.02.05.33.04.6.09.81.16l-.37,7.57Z" fill="#fff"/><path d="M385.98,44.18c0,2.12-.38,4.05-1.15,5.77s-1.81,3.18-3.13,4.39c-1.32,1.2-2.85,2.13-4.59,2.79-1.74.66-3.6.99-5.59.99s-3.8-.33-5.56-.99c-1.76-.66-3.29-1.59-4.59-2.79-1.31-1.2-2.34-2.66-3.11-4.39-.77-1.72-1.15-3.65-1.15-5.77s.38-4.04,1.15-5.74c.76-1.71,1.8-3.15,3.11-4.33,1.3-1.18,2.84-2.09,4.59-2.71,1.76-.63,3.61-.94,5.56-.94s3.85.31,5.59.94c1.74.63,3.27,1.53,4.59,2.71,1.32,1.18,2.37,2.63,3.13,4.33s1.15,3.62,1.15,5.74ZM377.74,44.18c0-.83-.14-1.65-.42-2.45-.28-.8-.68-1.51-1.2-2.12-.52-.61-1.17-1.1-1.93-1.49-.77-.38-1.65-.57-2.66-.57s-1.9.19-2.66.57c-.77.38-1.4.88-1.91,1.49-.5.61-.89,1.31-1.15,2.12-.26.8-.39,1.62-.39,2.45s.13,1.65.39,2.45c.26.8.65,1.52,1.17,2.17.52.64,1.17,1.16,1.93,1.54.77.38,1.65.57,2.66.57s1.9-.19,2.66-.57c.77-.38,1.41-.9,1.93-1.54.52-.64.91-1.37,1.17-2.17s.39-1.62.39-2.45Z" fill="#fff"/><path d="M47.16,9.68c15.71,0,27.72,3.82,33.01,5.86v33.3c0,13.94-5.59,24.98-16.61,32.82-6.83,4.86-13.81,7.03-16.4,7.72-2.61-.69-9.58-2.86-16.41-7.72-11.02-7.84-16.61-18.88-16.61-32.82V15.53c5.27-2.04,17.2-5.85,33.01-5.85M47.16,4.31c-23.03,0-38.39,7.68-38.39,7.68v36.85c0,38.39,38.39,46.06,38.39,46.06,0,0,38.39-7.68,38.39-46.06V11.99s-15.35-7.68-38.39-7.68h0Z" fill="#fff"/><path d="M47.16,24.27v21.5h21.5c0-11.87-9.62-21.5-21.5-21.5Z" fill="#ecdf49"/><path d="M25.67,45.77c0,11.87,9.62,21.5,21.5,21.5v-21.5h-21.5Z" fill="#ecdf49"/></svg>