<?xml version="1.0" encoding="UTF-8"?>
<svg id="Layer_1" xmlns="http://www.w3.org/2000/svg" version="1.1" viewBox="0 0 700 400">
  <!-- Generator: Adobe Illustrator 29.0.1, SVG Export Plug-In . SVG Version: 2.1.0 Build 192)  -->
  <defs>
    <style>
      .st0, .st1 {
        stroke: #c1c1c1;
      }

      .st0, .st1, .st2, .st3 {
        fill: none;
        stroke-miterlimit: 10;
      }

      .st0, .st1, .st3 {
        stroke-width: .5px;
      }

      .st4 {
        fill: #dbdbdb;
      }

      .st5 {
        fill: #c1c1c1;
      }

      .st1, .st3 {
        opacity: .5;
      }

      .st2 {
        stroke: #000;
      }

      .st6 {
        fill: #79d6c4;
      }

      .st3 {
        stroke: #79d6c4;
      }
    </style>
  </defs>
  <g>
    <g>
      <g>
        <line class="st0" x1="29.5" y1="64.7" x2="29.5" y2="341.8"/>
        <polygon class="st5" points="27 65.4 29.5 61.1 32 65.4 27 65.4"/>
      </g>
      <g>
        <line class="st0" x1="29.5" y1="341.8" x2="677.1" y2="341.8"/>
        <polygon class="st5" points="676.4 344.3 680.7 341.8 676.4 339.3 676.4 344.3"/>
      </g>
      <line class="st1" x1="29.5" y1="202.1" x2="183.3" y2="202.1"/>
      <line class="st3" x1="29.5" y1="120.7" x2="566.6" y2="120.7"/>
      <line class="st1" x1="183.3" y1="341.8" x2="183.3" y2="202.1"/>
      <line class="st3" x1="566.6" y1="341.8" x2="566.6" y2="120.7"/>
      <line class="st2" x1="29.5" y1="234.6" x2="680.7" y2="95.9"/>
      <circle class="st5" cx="183.3" cy="202.1" r="5.2"/>
      <circle class="st6" cx="566.6" cy="120.7" r="5.2"/>
      <path class="st4" d="M16.7,341.4c-.5-.3-.9-.8-1.2-1.5s-.4-1.4-.4-2.3.1-1.7.4-2.3c.3-.6.7-1.1,1.2-1.5s1.1-.5,1.8-.5,1.2.2,1.8.5c.5.3.9.8,1.2,1.5.3.6.4,1.4.4,2.3s-.1,1.7-.4,2.3-.7,1.1-1.2,1.5c-.5.3-1.1.5-1.8.5s-1.3-.2-1.8-.5ZM20.1,340c.4-.6.6-1.4.6-2.4s-.2-1.8-.6-2.4c-.4-.6-.9-.8-1.6-.8s-1.2.3-1.6.8c-.4.6-.6,1.4-.6,2.4s.2,1.8.6,2.4c.4.6.9.8,1.6.8s1.2-.3,1.6-.8Z"/>
    </g>
    <g>
      <path d="M390.5,353h4c2.3,0,3.7,1.3,3.7,3.3s-.6,2.4-1.8,2.9l2.2,4h-2.4l-1.9-3.6h-1.6v3.6h-2.2v-10.2ZM394.2,357.9c1.2,0,1.8-.5,1.8-1.5s-.6-1.6-1.8-1.6h-1.5v3.1h1.5Z"/>
      <path d="M399.3,359.4c0-2.4,1.5-4,3.7-4s3.6,1.3,3.6,3.9v.6h-5.2c0,1.1.7,1.8,1.7,1.8s1.3-.3,1.5-.9h2c-.3,1.5-1.6,2.5-3.5,2.5s-3.8-1.5-3.8-3.9ZM404.6,358.6c0-.9-.6-1.6-1.6-1.6s-1.6.7-1.6,1.6h3.2Z"/>
      <path d="M412.4,357.9c-.1-.5-.5-.9-1.3-.9s-1.2.3-1.2.8c0,.4.3.6,1,.8l1.4.3c1.5.3,2.2,1,2.2,2.1,0,1.5-1.4,2.5-3.4,2.5s-3.3-.9-3.5-2.4h2.1c.1.5.6.8,1.4.8s1.2-.3,1.2-.8c0-.4-.3-.6-1-.8l-1.3-.3c-1.5-.3-2.2-1-2.2-2.2,0-1.5,1.3-2.4,3.2-2.4s3.1.9,3.3,2.3h-1.9Z"/>
      <path d="M415.8,355.6h2.1v1.3h0c.3-.6.9-1.4,2.2-1.4s3.1,1.3,3.1,3.9-1.4,3.9-3.1,3.9-1.9-.7-2.2-1.3h0v4.1h-2.1v-10.5ZM419.5,361.6c1,0,1.6-.9,1.6-2.3s-.6-2.2-1.6-2.2-1.6.9-1.6,2.2.6,2.3,1.6,2.3Z"/>
      <path d="M424.3,359.4c0-2.4,1.4-4,3.8-4s3.8,1.6,3.8,4-1.4,3.9-3.8,3.9-3.8-1.6-3.8-3.9ZM429.7,359.4c0-1.3-.5-2.3-1.6-2.3s-1.6,1-1.6,2.3.5,2.3,1.6,2.3,1.6-1,1.6-2.3Z"/>
      <path d="M435.4,363.2h-2.1v-7.6h2v1.3h0c.3-.9,1.2-1.4,2.3-1.4s2.6,1.1,2.6,2.9v4.9h-2.1v-4.5c0-.9-.5-1.5-1.4-1.5s-1.4.6-1.4,1.6v4.4Z"/>
      <path d="M446.4,357.9c-.1-.5-.5-.9-1.3-.9s-1.2.3-1.2.8c0,.4.3.6,1,.8l1.4.3c1.5.3,2.2,1,2.2,2.1,0,1.5-1.4,2.5-3.4,2.5s-3.3-.9-3.5-2.4h2.1c.1.5.6.8,1.4.8s1.2-.3,1.2-.8c0-.4-.3-.6-1-.8l-1.3-.3c-1.5-.3-2.2-1-2.2-2.2,0-1.5,1.3-2.4,3.2-2.4s3.1.9,3.3,2.3h-1.9Z"/>
      <path d="M449.5,361.1c0-1.7,1.4-2.2,2.9-2.4,1.3-.1,1.9-.2,1.9-.7h0c0-.7-.4-1-1.1-1s-1.2.4-1.4.9l-2-.2c.3-1.4,1.5-2.3,3.3-2.3s3.2.8,3.2,2.6v5.2h-2v-1.1h0c-.4.7-1.1,1.2-2.2,1.2s-2.5-.8-2.5-2.3ZM454.2,360.5v-.8c-.3.2-1,.3-1.5.3-.7.1-1.2.4-1.2,1s.5.9,1.1.9c.9,0,1.6-.6,1.6-1.4Z"/>
      <path d="M458,353h2.1v3.8h0c.3-.6.9-1.4,2.2-1.4s3.1,1.3,3.1,3.9-1.4,3.9-3.1,3.9-1.9-.7-2.2-1.3h0v1.2h-2.1v-10.2ZM461.7,361.6c1,0,1.6-.9,1.6-2.3s-.6-2.2-1.6-2.2-1.6.9-1.6,2.2.6,2.3,1.6,2.3Z"/>
      <path d="M466.8,353.5c0-.6.5-1.1,1.1-1.1s1.1.5,1.1,1.1-.5,1.1-1.1,1.1-1.1-.5-1.1-1.1ZM466.8,355.6h2.1v7.6h-2.1v-7.6Z"/>
      <path d="M472.8,363.2h-2.1v-10.2h2.1v10.2Z"/>
      <path d="M474.4,353.5c0-.6.5-1.1,1.1-1.1s1.1.5,1.1,1.1-.5,1.1-1.1,1.1-1.1-.5-1.1-1.1ZM474.4,355.6h2.1v7.6h-2.1v-7.6Z"/>
      <path d="M478,359.4c0-2.6,1.4-3.9,3.1-3.9s1.9.8,2.2,1.4h0v-3.8h2.1v10.2h-2.1v-1.2h0c-.3.6-.9,1.3-2.2,1.3s-3.1-1.4-3.1-3.9ZM483.3,359.4c0-1.4-.6-2.2-1.6-2.2s-1.6.9-1.6,2.2.6,2.3,1.6,2.3,1.6-.9,1.6-2.3Z"/>
      <path d="M486.8,361.1c0-1.7,1.4-2.2,2.9-2.4,1.3-.1,1.9-.2,1.9-.7h0c0-.7-.4-1-1.1-1s-1.2.4-1.4.9l-2-.2c.3-1.4,1.5-2.3,3.3-2.3s3.2.8,3.2,2.6v5.2h-2v-1.1h0c-.4.7-1.1,1.2-2.2,1.2s-2.5-.8-2.5-2.3ZM491.5,360.5v-.8c-.3.2-1,.3-1.5.3-.7.1-1.2.4-1.2,1s.5.9,1.1.9c.9,0,1.6-.6,1.6-1.4Z"/>
      <path d="M495,359.4c0-2.6,1.4-3.9,3.1-3.9s1.9.8,2.2,1.4h0v-3.8h2.1v10.2h-2.1v-1.2h0c-.3.6-.9,1.3-2.2,1.3s-3.1-1.4-3.1-3.9ZM500.4,359.4c0-1.4-.6-2.2-1.6-2.2s-1.6.9-1.6,2.2.6,2.3,1.6,2.3,1.6-.9,1.6-2.3Z"/>
      <path d="M503.9,359.4c0-2.4,1.5-4,3.7-4s3.6,1.3,3.6,3.9v.6h-5.2c0,1.1.7,1.8,1.7,1.8s1.3-.3,1.5-.9h2c-.3,1.5-1.6,2.5-3.5,2.5s-3.8-1.5-3.8-3.9ZM509.2,358.6c0-.9-.6-1.6-1.6-1.6s-1.6.7-1.6,1.6h3.2Z"/>
      <path d="M516.9,357.9c-.1-.5-.5-.9-1.3-.9s-1.2.3-1.2.8c0,.4.3.6,1,.8l1.4.3c1.5.3,2.2,1,2.2,2.1,0,1.5-1.4,2.5-3.4,2.5s-3.3-.9-3.5-2.4h2.1c.1.5.6.8,1.4.8s1.2-.3,1.2-.8c0-.4-.3-.6-1-.8l-1.3-.3c-1.5-.3-2.2-1-2.2-2.2,0-1.5,1.3-2.4,3.2-2.4s3.1.9,3.3,2.3h-1.9Z"/>
      <path d="M523.3,361.1c0-1.7,1.4-2.2,2.9-2.4,1.3-.1,1.8-.2,1.8-.7h0c0-.7-.4-1-1.1-1s-1.2.4-1.4.9l-2-.2c.3-1.4,1.5-2.3,3.3-2.3s3.2.8,3.2,2.6v5.2h-2v-1.1h0c-.4.7-1.1,1.2-2.2,1.2s-2.5-.8-2.5-2.3ZM528,360.5v-.8c-.3.2-1,.3-1.5.3-.7.1-1.2.4-1.2,1s.5.9,1.1.9c.9,0,1.6-.6,1.6-1.4Z"/>
      <path d="M536.2,357.9c-.1-.5-.5-.9-1.3-.9s-1.2.3-1.2.8c0,.4.3.6,1,.8l1.4.3c1.5.3,2.2,1,2.2,2.1,0,1.5-1.4,2.5-3.4,2.5s-3.3-.9-3.5-2.4h2.1c.1.5.6.8,1.4.8s1.2-.3,1.2-.8c0-.4-.3-.6-1-.8l-1.3-.3c-1.5-.3-2.2-1-2.2-2.2,0-1.5,1.3-2.4,3.2-2.4s3.1.9,3.3,2.3h-1.9Z"/>
      <path d="M544,357.9c-.1-.5-.5-.9-1.3-.9s-1.2.3-1.2.8c0,.4.3.6,1,.8l1.4.3c1.5.3,2.2,1,2.2,2.1,0,1.5-1.4,2.5-3.4,2.5s-3.3-.9-3.5-2.4h2.1c.1.5.6.8,1.4.8s1.2-.3,1.2-.8c0-.4-.3-.6-1-.8l-1.3-.3c-1.5-.3-2.2-1-2.2-2.2,0-1.5,1.3-2.4,3.2-2.4s3.1.9,3.3,2.3h-1.9Z"/>
      <path d="M552.4,355.6h2.1v7.6h-2v-1.4h0c-.3.9-1.2,1.5-2.3,1.5s-2.6-1.1-2.6-2.9v-4.9h2.1v4.5c0,.9.5,1.5,1.3,1.5s1.5-.5,1.5-1.6v-4.4Z"/>
      <path d="M556.2,355.6h2v1.3h0c.3-.9,1.1-1.4,2.1-1.4s1.8.6,2.1,1.4h0c.3-.9,1.2-1.4,2.3-1.4s2.4.9,2.4,2.6v5.1h-2.1v-4.7c0-.8-.5-1.3-1.2-1.3s-1.2.5-1.2,1.3v4.7h-2.1v-4.8c0-.8-.5-1.2-1.2-1.2s-1.2.6-1.2,1.4v4.6h-2.1v-7.6Z"/>
      <path d="M568.9,353.5c0-.6.5-1.1,1.1-1.1s1.1.5,1.1,1.1-.5,1.1-1.1,1.1-1.1-.5-1.1-1.1ZM569,355.6h2.1v7.6h-2.1v-7.6Z"/>
      <path d="M572.5,359.4c0-2.6,1.4-3.9,3.1-3.9s1.9.8,2.2,1.4h0v-3.8h2.1v10.2h-2.1v-1.2h0c-.3.6-.9,1.3-2.2,1.3s-3.1-1.4-3.1-3.9ZM577.9,359.4c0-1.4-.6-2.2-1.6-2.2s-1.6.9-1.6,2.2.6,2.3,1.6,2.3,1.6-.9,1.6-2.3Z"/>
      <path d="M581.3,361.1c0-1.7,1.4-2.2,2.9-2.4,1.3-.1,1.9-.2,1.9-.7h0c0-.7-.4-1-1.1-1s-1.2.4-1.4.9l-2-.2c.3-1.4,1.5-2.3,3.3-2.3s3.2.8,3.2,2.6v5.2h-2v-1.1h0c-.4.7-1.1,1.2-2.2,1.2s-2.5-.8-2.5-2.3ZM586,360.5v-.8c-.3.2-1,.3-1.5.3-.7.1-1.2.4-1.2,1s.5.9,1.1.9c.9,0,1.6-.6,1.6-1.4Z"/>
      <path d="M594.2,357.9c-.1-.5-.5-.9-1.3-.9s-1.2.3-1.2.8c0,.4.3.6,1,.8l1.4.3c1.5.3,2.2,1,2.2,2.1,0,1.5-1.4,2.5-3.4,2.5s-3.3-.9-3.5-2.4h2.1c.1.5.6.8,1.4.8s1.2-.3,1.2-.8c0-.4-.3-.6-1-.8l-1.3-.3c-1.5-.3-2.2-1-2.2-2.2,0-1.5,1.3-2.4,3.2-2.4s3.1.9,3.3,2.3h-1.9Z"/>
      <path d="M601.8,355.6h1.1v1.2h.1c.3-.4.7-1.3,2.2-1.3s3.3,1.5,3.3,3.9-1.3,4-3.2,4-2-.9-2.2-1.3h0v4h-1.2v-10.5ZM605.2,362.3c1.5,0,2.2-1.3,2.2-2.9s-.7-2.9-2.2-2.9-2.2,1.2-2.2,2.9.8,2.9,2.2,2.9Z"/>
      <path d="M610,359.4c0-2.3,1.4-4,3.4-4s3.3,1,3.3,3.8v.5h-5.5c0,1.6,1,2.5,2.4,2.5s1.6-.4,1.9-1.2l1.1.3c-.4,1.2-1.5,1.9-3,1.9-2.2,0-3.6-1.6-3.6-3.9ZM615.5,358.8c0-1.3-.8-2.2-2.1-2.2s-2.2,1.1-2.3,2.2h4.4Z"/>
      <path d="M619.7,363.2h-1.2v-10.2h1.2v10.2Z"/>
      <path d="M621.5,359.4c0-2.4,1.4-4,3.5-4s3.5,1.6,3.5,4-1.4,3.9-3.5,3.9-3.5-1.6-3.5-3.9ZM627.2,359.4c0-1.5-.7-2.9-2.3-2.9s-2.3,1.4-2.3,2.9.7,2.9,2.3,2.9,2.3-1.4,2.3-2.9Z"/>
      <path d="M638.5,357.6c-.2-.5-.6-1.1-1.7-1.1s-1.6.5-1.6,1.1.4.9,1.3,1.1l1.1.3c1.4.3,2,1,2,2.1s-1.2,2.3-3,2.3-2.6-.7-2.9-2l1.1-.3c.2.8.8,1.2,1.8,1.2s1.8-.5,1.8-1.2-.4-.9-1.1-1.1l-1.3-.3c-1.4-.3-2-1-2-2.1s1.2-2.2,2.8-2.2,2.3.7,2.7,1.8l-1.1.3Z"/>
      <path d="M641.1,359.4c0-2.3,1.4-4,3.4-4s3.3,1,3.3,3.8v.5h-5.5c0,1.6,1,2.5,2.4,2.5s1.6-.4,1.9-1.2l1.1.3c-.4,1.2-1.5,1.9-3,1.9-2.2,0-3.6-1.6-3.6-3.9ZM646.6,358.8c0-1.3-.8-2.2-2.1-2.2s-2.2,1.1-2.3,2.2h4.4Z"/>
      <path d="M649.5,364.7l.9-.7c.3.4.8,1.2,2.2,1.2s2.1-.6,2.1-1.8v-1.6h0c-.3.4-.7,1.3-2.2,1.3s-3.2-1.4-3.2-3.7,1.3-3.9,3.3-3.9,2,.9,2.2,1.3h.1v-1.2h1.1v7.9c0,2-1.5,2.8-3.3,2.8s-2.6-.7-3.1-1.5ZM654.8,359.3c0-1.7-.8-2.8-2.2-2.8s-2.2,1.3-2.2,2.8.8,2.7,2.2,2.7,2.2-1,2.2-2.7Z"/>
      <path d="M662.9,355.6h1.2v7.6h-1.2v-1.3h0c-.4.8-1.1,1.4-2.3,1.4s-2.5-.9-2.5-2.9v-4.9h1.2v4.8c0,1.1.7,1.8,1.7,1.8s2-.7,2-2.1v-4.5Z"/>
      <path d="M666.3,355.6h1.1v1.2h0c.3-.8,1.1-1.3,2-1.3s.5,0,.6,0v1.2c0,0-.4,0-.7,0-1.1,0-1.9.8-1.9,1.8v4.8h-1.2v-7.6Z"/>
      <path d="M670.9,359.4c0-2.4,1.4-4,3.5-4s3.5,1.6,3.5,4-1.4,3.9-3.5,3.9-3.5-1.6-3.5-3.9ZM676.6,359.4c0-1.5-.7-2.9-2.3-2.9s-2.3,1.4-2.3,2.9.7,2.9,2.3,2.9,2.3-1.4,2.3-2.9Z"/>
    </g>
  </g>
  <g>
    <path d="M29.6,44.1v-10.2h3.6c3.1,0,5,1.9,5,5.1s-1.9,5.1-5,5.1h-3.6ZM33.1,42.3c1.9,0,2.9-1,2.9-3.3s-1-3.2-2.9-3.2h-1.4v6.5h1.4Z"/>
    <path d="M39.7,34.4c0-.6.5-1.1,1.1-1.1s1.1.5,1.1,1.1-.5,1.1-1.1,1.1-1.1-.5-1.1-1.1ZM39.8,36.5h2.1v7.6h-2.1v-7.6Z"/>
    <path d="M43.6,36.5h2.1v1.3h0c.3-.9,1-1.4,1.8-1.4s.5,0,.7,0v1.9c-.2,0-.6-.1-.9-.1-.9,0-1.6.6-1.6,1.6v4.3h-2.1v-7.6Z"/>
    <path d="M48.6,40.3c0-2.4,1.5-4,3.7-4s3.6,1.3,3.6,3.9v.6h-5.2c0,1.1.7,1.8,1.7,1.8s1.3-.3,1.5-.9h2c-.3,1.5-1.6,2.5-3.5,2.5s-3.8-1.5-3.8-3.9ZM53.9,39.5c0-.9-.6-1.6-1.6-1.6s-1.6.7-1.6,1.6h3.2Z"/>
    <path d="M57.2,34.4c0-.6.5-1.1,1.1-1.1s1.1.5,1.1,1.1-.5,1.1-1.1,1.1-1.1-.5-1.1-1.1ZM57.3,36.5h2.1v7.6h-2.1v-7.6Z"/>
    <path d="M65.2,38.1h-1.4v3.7c0,.6.3.7.7.7s.4,0,.5,0l.3,1.6c-.2,0-.6.2-1.1.2-1.5,0-2.6-.7-2.5-2.2v-4h-1v-1.6h1v-1.8h2.1v1.8h1.4v1.6Z"/>
    <path d="M66.1,40.3c0-2.4,1.4-4,3.8-4s3.8,1.6,3.8,4-1.4,3.9-3.8,3.9-3.8-1.6-3.8-3.9ZM71.5,40.3c0-1.3-.5-2.3-1.6-2.3s-1.6,1-1.6,2.3.5,2.3,1.6,2.3,1.6-1,1.6-2.3Z"/>
    <path d="M79.5,38.8c-.1-.5-.5-.9-1.3-.9s-1.2.3-1.2.8c0,.4.3.6,1,.8l1.4.3c1.5.3,2.2,1,2.2,2.1,0,1.5-1.4,2.5-3.4,2.5s-3.3-.9-3.5-2.4h2.1c.1.5.6.8,1.4.8s1.2-.3,1.2-.8c0-.4-.3-.6-1-.8l-1.3-.3c-1.5-.3-2.2-1-2.2-2.2,0-1.5,1.3-2.4,3.2-2.4s3.1.9,3.3,2.3h-1.9Z"/>
    <path d="M85.9,40.3c0-2.3,1.4-4,3.8-4s3.3,1.2,3.4,2.9h-2c-.1-.8-.6-1.3-1.4-1.3s-1.6.8-1.6,2.3.6,2.3,1.6,2.3,1.3-.5,1.4-1.3h2c0,1.8-1.4,3-3.4,3s-3.8-1.6-3.8-3.9Z"/>
    <path d="M94.1,40.3c0-2.4,1.4-4,3.8-4s3.8,1.6,3.8,4-1.4,3.9-3.8,3.9-3.8-1.6-3.8-3.9ZM99.4,40.3c0-1.3-.5-2.3-1.6-2.3s-1.6,1-1.6,2.3.5,2.3,1.6,2.3,1.6-1,1.6-2.3Z"/>
    <path d="M105.1,44.1h-2.1v-7.6h2v1.3h0c.3-.9,1.2-1.4,2.3-1.4s2.6,1.1,2.6,2.9v4.9h-2.1v-4.5c0-.9-.5-1.5-1.4-1.5s-1.4.6-1.4,1.6v4.4Z"/>
    <path d="M116.1,38.8c-.1-.5-.5-.9-1.3-.9s-1.2.3-1.2.8c0,.4.3.6,1,.8l1.4.3c1.5.3,2.2,1,2.2,2.1,0,1.5-1.4,2.5-3.4,2.5s-3.3-.9-3.5-2.4h2.1c.1.5.6.8,1.4.8s1.2-.3,1.2-.8c0-.4-.3-.6-1-.8l-1.3-.3c-1.5-.3-2.2-1-2.2-2.2,0-1.5,1.3-2.4,3.2-2.4s3.1.9,3.3,2.3h-1.9Z"/>
    <path d="M123.6,38.1h-1.4v3.7c0,.6.3.7.7.7s.4,0,.5,0l.3,1.6c-.2,0-.6.2-1.1.2-1.5,0-2.6-.7-2.5-2.2v-4h-1v-1.6h1v-1.8h2.1v1.8h1.4v1.6Z"/>
    <path d="M124.9,34.4c0-.6.5-1.1,1.1-1.1s1.1.5,1.1,1.1-.5,1.1-1.1,1.1-1.1-.5-1.1-1.1ZM125,36.5h2.1v7.6h-2.1v-7.6Z"/>
    <path d="M132.9,38.1h-1.4v3.7c0,.6.3.7.7.7s.4,0,.5,0l.3,1.6c-.2,0-.6.2-1.1.2-1.5,0-2.6-.7-2.5-2.2v-4h-1v-1.6h1v-1.8h2.1v1.8h1.4v1.6Z"/>
    <path d="M139.1,36.5h2.1v7.6h-2v-1.4h0c-.3.9-1.2,1.5-2.3,1.5s-2.6-1.1-2.6-2.9v-4.9h2.1v4.5c0,.9.5,1.5,1.3,1.5s1.5-.5,1.5-1.6v-4.4Z"/>
    <path d="M142.9,36.5h2.1v7.6h-2.1v-7.6ZM144.3,33.2h2l-1.5,2.3h-1.5l1.1-2.3Z"/>
    <path d="M146.5,40.3c0-2.6,1.4-3.9,3.1-3.9s1.9.8,2.2,1.4h0v-3.8h2.1v10.2h-2.1v-1.2h0c-.3.6-.9,1.3-2.2,1.3s-3.1-1.4-3.1-3.9ZM151.8,40.3c0-1.4-.6-2.2-1.6-2.2s-1.6.9-1.6,2.2.6,2.3,1.6,2.3,1.6-.9,1.6-2.3Z"/>
    <path d="M155.3,40.3c0-2.4,1.4-4,3.8-4s3.8,1.6,3.8,4-1.4,3.9-3.8,3.9-3.8-1.6-3.8-3.9ZM160.7,40.3c0-1.3-.5-2.3-1.6-2.3s-1.6,1-1.6,2.3.5,2.3,1.6,2.3,1.6-1,1.6-2.3Z"/>
    <path d="M168.6,38.8c-.1-.5-.5-.9-1.3-.9s-1.2.3-1.2.8c0,.4.3.6,1,.8l1.4.3c1.5.3,2.2,1,2.2,2.1,0,1.5-1.4,2.5-3.4,2.5s-3.3-.9-3.5-2.4h2.1c.1.5.6.8,1.4.8s1.2-.3,1.2-.8c0-.4-.3-.6-1-.8l-1.3-.3c-1.5-.3-2.2-1-2.2-2.2,0-1.5,1.3-2.4,3.2-2.4s3.1.9,3.3,2.3h-1.9Z"/>
  </g>
</svg>